<svg xmlns="http://www.w3.org/2000/svg" xmlns:xlink="http://www.w3.org/1999/xlink" width="35.355" height="35.355" viewBox="0 0 35.355 35.355"><defs><style>.a{fill:#fff;stroke:#707070;}.b{clip-path:url(#a);}.c,.f{fill:none;}.c,.d{stroke:#12a2ef;}.d{fill:rgba(255,255,255,0.01);}.e{stroke:none;}</style><clipPath id="a"><circle class="a" cx="12.5" cy="12.5" r="12.5" transform="translate(0 0)"/></clipPath></defs><g transform="translate(-988.535 140.714) rotate(-45)"><g class="b" transform="translate(786 612)"><path class="c" d="M0,0H47.727" transform="translate(-11.742 1.894)"/><path class="c" d="M0,0H47.727" transform="translate(-11.742 3.409)"/><path class="c" d="M0,0H47.727" transform="translate(-11.742 4.924)"/><path class="c" d="M0,0H47.727" transform="translate(-11.742 6.439)"/><path class="c" d="M0,0H47.727" transform="translate(-11.742 7.955)"/><path class="c" d="M0,0H47.727" transform="translate(-11.742 9.47)"/><path class="c" d="M0,0H47.727" transform="translate(-11.742 10.985)"/><path class="c" d="M0,0H47.727" transform="translate(-11.742 12.5)"/><path class="c" d="M0,0H47.727" transform="translate(-11.742 14.015)"/><path class="c" d="M0,0H47.727" transform="translate(-11.742 15.53)"/><path class="c" d="M0,0H47.727" transform="translate(-11.742 17.045)"/><path class="c" d="M0,0H47.727" transform="translate(-11.742 18.561)"/><path class="c" d="M0,0H47.727" transform="translate(-11.742 20.076)"/><path class="c" d="M0,0H47.727" transform="translate(-11.742 21.591)"/><path class="c" d="M0,0H47.727" transform="translate(-11.742 23.106)"/></g><g class="d" transform="translate(786 612)"><circle class="e" cx="12.5" cy="12.5" r="12.5"/><circle class="f" cx="12.5" cy="12.5" r="12"/></g></g></svg>