<svg xmlns="http://www.w3.org/2000/svg" xmlns:xlink="http://www.w3.org/1999/xlink" width="25" height="25" viewBox="0 0 25 25"><defs><style>.a{fill:#9b9b9b;}.a,.d{stroke:#989898;}.b{clip-path:url(#a);}.c{fill:#909090;}.d,.f{fill:none;}.e{stroke:none;}</style><clipPath id="a"><circle class="a" cx="12.5" cy="12.5" r="12.5"/></clipPath></defs><g transform="translate(6816 8730)"><g class="b" transform="translate(-6816 -8730)"><g transform="translate(-9.091 -5.303)"><circle class="c" cx="1.136" cy="1.136" r="1.136"/><circle class="c" cx="1.136" cy="1.136" r="1.136" transform="translate(7.576)"/><circle class="c" cx="1.136" cy="1.136" r="1.136" transform="translate(15.152)"/><circle class="c" cx="1.136" cy="1.136" r="1.136" transform="translate(22.727)"/><circle class="c" cx="1.136" cy="1.136" r="1.136" transform="translate(0 7.576)"/><circle class="c" cx="1.136" cy="1.136" r="1.136" transform="translate(7.576 7.576)"/><circle class="c" cx="1.136" cy="1.136" r="1.136" transform="translate(15.152 7.576)"/><circle class="c" cx="1.136" cy="1.136" r="1.136" transform="translate(22.727 7.576)"/><circle class="c" cx="1.136" cy="1.136" r="1.136" transform="translate(0 15.152)"/><circle class="c" cx="1.136" cy="1.136" r="1.136" transform="translate(7.576 15.152)"/><circle class="c" cx="1.136" cy="1.136" r="1.136" transform="translate(15.152 15.152)"/><circle class="c" cx="1.136" cy="1.136" r="1.136" transform="translate(22.727 15.152)"/><circle class="c" cx="1.136" cy="1.136" r="1.136" transform="translate(0 22.727)"/><circle class="c" cx="1.136" cy="1.136" r="1.136" transform="translate(7.576 22.727)"/><circle class="c" cx="1.136" cy="1.136" r="1.136" transform="translate(15.152 22.727)"/><circle class="c" cx="1.136" cy="1.136" r="1.136" transform="translate(22.727 22.727)"/><circle class="c" cx="1.136" cy="1.136" r="1.136" transform="translate(30.303)"/><circle class="c" cx="1.136" cy="1.136" r="1.136" transform="translate(30.303 7.576)"/><circle class="c" cx="1.136" cy="1.136" r="1.136" transform="translate(30.303 15.152)"/><circle class="c" cx="1.136" cy="1.136" r="1.136" transform="translate(30.303 22.727)"/><circle class="c" cx="1.136" cy="1.136" r="1.136" transform="translate(0 30.303)"/><circle class="c" cx="1.136" cy="1.136" r="1.136" transform="translate(7.576 30.303)"/><circle class="c" cx="1.136" cy="1.136" r="1.136" transform="translate(15.152 30.303)"/><circle class="c" cx="1.136" cy="1.136" r="1.136" transform="translate(22.727 30.303)"/><circle class="c" cx="1.136" cy="1.136" r="1.136" transform="translate(30.303 30.303)"/><circle class="c" cx="1.136" cy="1.136" r="1.136" transform="translate(3.788 3.788)"/><circle class="c" cx="1.136" cy="1.136" r="1.136" transform="translate(11.364 3.788)"/><circle class="c" cx="1.136" cy="1.136" r="1.136" transform="translate(18.939 3.788)"/><circle class="c" cx="1.136" cy="1.136" r="1.136" transform="translate(26.515 3.788)"/><circle class="c" cx="1.136" cy="1.136" r="1.136" transform="translate(3.788 11.364)"/><circle class="c" cx="1.136" cy="1.136" r="1.136" transform="translate(11.364 11.364)"/><circle class="c" cx="1.136" cy="1.136" r="1.136" transform="translate(18.939 11.364)"/><circle class="c" cx="1.136" cy="1.136" r="1.136" transform="translate(26.515 11.364)"/><circle class="c" cx="1.136" cy="1.136" r="1.136" transform="translate(3.788 18.939)"/><circle class="c" cx="1.136" cy="1.136" r="1.136" transform="translate(11.364 18.939)"/><circle class="c" cx="1.136" cy="1.136" r="1.136" transform="translate(18.939 18.939)"/><circle class="c" cx="1.136" cy="1.136" r="1.136" transform="translate(26.515 18.939)"/><circle class="c" cx="1.136" cy="1.136" r="1.136" transform="translate(3.788 26.515)"/><circle class="c" cx="1.136" cy="1.136" r="1.136" transform="translate(11.364 26.515)"/><circle class="c" cx="1.136" cy="1.136" r="1.136" transform="translate(18.939 26.515)"/><circle class="c" cx="1.136" cy="1.136" r="1.136" transform="translate(26.515 26.515)"/><circle class="c" cx="1.136" cy="1.136" r="1.136" transform="translate(34.091 3.788)"/><circle class="c" cx="1.136" cy="1.136" r="1.136" transform="translate(34.091 11.364)"/><circle class="c" cx="1.136" cy="1.136" r="1.136" transform="translate(34.091 18.939)"/><circle class="c" cx="1.136" cy="1.136" r="1.136" transform="translate(34.091 26.515)"/><circle class="c" cx="1.136" cy="1.136" r="1.136" transform="translate(3.788 34.091)"/><circle class="c" cx="1.136" cy="1.136" r="1.136" transform="translate(11.364 34.091)"/><circle class="c" cx="1.136" cy="1.136" r="1.136" transform="translate(18.939 34.091)"/><circle class="c" cx="1.136" cy="1.136" r="1.136" transform="translate(26.515 34.091)"/><circle class="c" cx="1.136" cy="1.136" r="1.136" transform="translate(34.091 34.091)"/></g></g><g class="d" transform="translate(-6816 -8730)"><circle class="e" cx="12.5" cy="12.5" r="12.5"/><circle class="f" cx="12.5" cy="12.5" r="12"/></g></g></svg>