<svg xmlns="http://www.w3.org/2000/svg" width="78" height="78" viewBox="0 0 78 78"><defs><style>.a{fill:#b0245c;}.b{fill:#c6658c;}.c{fill:#f2cada;}.d{fill:#cf81a0;}.e{fill:#f7f7f7;}</style></defs><path class="a" d="M27.686,275.156a.65.65,0,0,0,.481,1.079h2.964v14.3h3.9v-14.3H32.067a.65.65,0,0,1-.481-1.079l9.438-10.621h-3.9Zm0,0" transform="translate(-23.331 -224.235)"/><path class="a" d="M134.5,62.334a2.619,2.619,0,0,1,2.6-2.6h-3.9a2.62,2.62,0,0,0-2.6,2.6,2.608,2.608,0,0,1-2.6,2.6h3.9A2.608,2.608,0,0,0,134.5,62.334Zm0,0" transform="translate(-108.5 -50.634)"/><path class="a" d="M282.9,16.334h3.3a5.179,5.179,0,0,1,2.548-7.41h.008a5.189,5.189,0,0,0-1.958-.39,4.879,4.879,0,0,0-1.95.39,5.18,5.18,0,0,0-2.548,7.41Zm0,0" transform="translate(-238.701 -7.234)"/><path class="a" d="M8.535,119.867h3.9l13.65-19.5.91-1.3h-1.56a2.6,2.6,0,1,1,0-5.2h-3.9a2.6,2.6,0,1,0,0,5.2h1.56l-.91,1.3Zm0,0" transform="translate(-7.235 -79.567)"/><path class="b" d="M83.935,77.24v16.9H8.535l13.65-19.5.91-1.3h7.449l9.75,13.286.234.325a.65.65,0,0,0,1.04.026L49.6,76.927l1.313-1.651a.663.663,0,0,1,1.027.013l7.579,9.75.442.559a.65.65,0,0,0,1.066-.065L73.158,65.682l1.131-1.859a.65.65,0,0,1,1.105,0Zm0,0" transform="translate(-7.235 -53.839)"/><path class="c" d="M81.335,85.774v15.6H8.535l13.65-19.5h5.759l9.984,13.611a.649.649,0,0,0,1.04.026l1.326-1.651,8.021-10.049a.664.664,0,0,1,1.027.013l.26.338,7.761,9.971a.65.65,0,0,0,1.066-.065l1.092-1.794L71.689,72.358a.65.65,0,0,1,1.105,0l.364.559Zm0,0" transform="translate(-7.235 -61.074)"/><path class="d" d="M193.5,332.8H179.2v15.6h11.7Zm0,0" transform="translate(-151.899 -282.101)"/><path class="b" d="M51.2,332.8H70.7v15.6H51.2Zm0,0" transform="translate(-43.399 -282.101)"/><path class="c" d="M51.2,332.8H66.8v15.6H51.2Zm0,0" transform="translate(-43.399 -282.101)"/><path class="b" d="M133.865,230.4h3.9a.65.65,0,0,1,.65.65v4.55h-5.2v-4.55A.65.65,0,0,1,133.865,230.4Zm0,0" transform="translate(-112.92 -195.299)"/><path class="b" d="M176.862,276.218H158.8l7.163-9.477,1.495-1.976a.725.725,0,0,1,.442-.247.634.634,0,0,1,.546.221l8.893,10.4a.65.65,0,0,1-.481,1.079Zm0,0" transform="translate(-134.612 -224.218)"/><path class="b" d="M56.624,264.535a.725.725,0,0,0-.442.247l-8.658,11.453H28.167a.65.65,0,0,1-.481-1.079l9.438-10.621Zm0,0" transform="translate(-23.331 -224.235)"/><path class="d" d="M292,13.734a5.2,5.2,0,0,1-5.2,5.2,5.429,5.429,0,0,1-1.313-.169l-.416-.312L282.3,16.334a5.18,5.18,0,0,1,2.548-7.41,4.879,4.879,0,0,1,1.95-.39,5.2,5.2,0,0,1,5.2,5.2Zm0,0" transform="translate(-238.701 -7.234)"/><path class="c" d="M288.1,15.9a5.181,5.181,0,0,1-3.029,4.719L282.3,18.5a5.18,5.18,0,0,1,2.548-7.41A5.171,5.171,0,0,1,288.1,15.9Zm0,0" transform="translate(-238.701 -9.404)"/><path class="d" d="M111.9,62.334a2.608,2.608,0,0,1-2.6,2.6H98.9a2.608,2.608,0,0,0-2.6,2.6,2.62,2.62,0,0,1-2.6,2.6H79.4a2.6,2.6,0,1,1,0-5.2h5.2a2.608,2.608,0,0,0,2.6-2.6,2.62,2.62,0,0,1,2.6-2.6h19.5A2.608,2.608,0,0,1,111.9,62.334Zm0,0" transform="translate(-65.101 -50.634)"/><path class="c" d="M109.3,59.734a2.608,2.608,0,0,1-2.6,2.6H96.3a2.608,2.608,0,0,0-2.6,2.6,2.62,2.62,0,0,1-2.6,2.6H76.8a2.619,2.619,0,0,1,2.6-2.6h5.2a2.608,2.608,0,0,0,2.6-2.6,2.62,2.62,0,0,1,2.6-2.6Zm0,0" transform="translate(-65.101 -50.634)"/><path class="b" d="M366.934,401.066h13v15.6h-13Zm0,0" transform="translate(-311.034 -339.966)"/><path class="d" d="M366.934,401.066h9.1v15.6h-9.1Zm0,0" transform="translate(-311.034 -339.966)"/><path class="a" d="M238.934,401.066h19.5v15.6h-19.5Zm0,0" transform="translate(-202.534 -339.966)"/><path class="c" d="M238.934,401.066h15.6v15.6h-15.6Zm0,0" transform="translate(-202.534 -339.966)"/><path class="a" d="M324.916,290.133h3.9a.65.65,0,0,1,.65.65v4.55h-5.2v-4.55A.65.65,0,0,1,324.916,290.133Zm0,0" transform="translate(-274.866 -245.933)"/><path class="b" d="M367.924,335.949H349.867l7.163-9.477,1.495-1.976a.727.727,0,0,1,.442-.247.634.634,0,0,1,.546.221l8.892,10.4a.65.65,0,0,1-.481,1.079Zm0,0" transform="translate(-296.567 -274.849)"/><path class="a" d="M247.686,324.266a.727.727,0,0,0-.442.247l-8.658,11.453H219.229a.65.65,0,0,1-.481-1.079l9.438-10.621Zm0,0" transform="translate(-185.286 -274.866)"/><path class="d" d="M176,282.543H162.133l7.163-9.477,7.189,8.4a.65.65,0,0,1-.481,1.079Zm0,0" transform="translate(-137.433 -231.466)"/><path class="c" d="M52.438,264.535a.724.724,0,0,0-.442.247l-8.658,11.453H28.167a.65.65,0,0,1-.481-1.079l9.438-10.621Zm0,0" transform="translate(-23.331 -224.235)"/><path class="d" d="M363.738,348.336H349.867l7.163-9.477,7.189,8.4a.65.65,0,0,1-.481,1.079Zm0,0" transform="translate(-296.567 -287.236)"/><path class="c" d="M243.5,324.266a.725.725,0,0,0-.442.247L234.4,335.966H219.229a.65.65,0,0,1-.481-1.079l9.438-10.621Zm0,0" transform="translate(-185.286 -274.866)"/><path class="e" d="M1.543,143.91l9.692-13.845,4.868-6.955,2.129,1.49-4.868,6.955L3.673,145.4Zm0,0" transform="translate(-1.308 -104.354)"/><path class="a" d="M395.135,429.268v-1.3a1.3,1.3,0,0,0-2.6,0v1.3a1.3,1.3,0,0,0,2.6,0Zm0,0" transform="translate(-332.735 -361.668)"/><path class="a" d="M317.034,426.668a1.3,1.3,0,0,0-1.3,1.3v1.3a1.3,1.3,0,0,0,2.6,0v-1.3A1.3,1.3,0,0,0,317.034,426.668Zm0,0" transform="translate(-267.634 -361.668)"/><path class="a" d="M274.367,426.668a1.3,1.3,0,0,0-1.3,1.3v1.3a1.3,1.3,0,0,0,2.6,0v-1.3A1.3,1.3,0,0,0,274.367,426.668Zm0,0" transform="translate(-231.466 -361.668)"/><path class="a" d="M129.3,358.4a1.3,1.3,0,0,0-1.3,1.3V361a1.3,1.3,0,1,0,2.6,0v-1.3A1.3,1.3,0,0,0,129.3,358.4Zm0,0" transform="translate(-108.5 -303.799)"/><path class="a" d="M86.632,358.4a1.3,1.3,0,0,0-1.3,1.3V361a1.3,1.3,0,1,0,2.6,0v-1.3A1.3,1.3,0,0,0,86.632,358.4Zm0,0" transform="translate(-72.332 -303.799)"/><path class="a" d="M156.2,497.534a1.3,1.3,0,0,0,0-2.6h-1.3a1.3,1.3,0,0,0,0,2.6Zm0,0" transform="translate(-130.201 -419.534)"/><path class="a" d="M39.354,202.041a.8.8,0,0,0,.147.2,1.787,1.787,0,0,0,.2.17,1.254,1.254,0,0,0,1.443.027,1.264,1.264,0,0,0,.394-1.788,1.31,1.31,0,0,0-.346-.369,1.287,1.287,0,0,0-1.811.32,1.369,1.369,0,0,0-.22.972l.07.239A.968.968,0,0,0,39.354,202.041Zm0,0" transform="translate(-33.181 -169.565)"/><path class="a" d="M69.255,9.279a1.939,1.939,0,0,0-1.644-.9h-.021a1.937,1.937,0,0,0-1.643.934L53.17,30.217l-7.437-9.564A1.937,1.937,0,0,0,44.2,19.9h-.013a1.935,1.935,0,0,0-1.522.733L33.839,31.664,25.87,20.8H28.6a3.9,3.9,0,0,0,3.9-3.9,1.3,1.3,0,0,1,1.3-1.3H44.2a3.89,3.89,0,0,0,3.665-2.615c.078,0,.159.015.236.015a6.5,6.5,0,1,0-6.5-6.5,6.325,6.325,0,0,0,.148,1.3H24.7a3.9,3.9,0,0,0-3.9,3.9A1.3,1.3,0,0,1,19.5,13H14.3a3.9,3.9,0,0,0-.865,7.7L9.18,26.78a1.3,1.3,0,0,0,2.129,1.486L16.537,20.8h6.11l9.6,13.084a1.935,1.935,0,0,0,1.531.8,1.888,1.888,0,0,0,1.56-.732l8.84-11.05,7.511,9.656A1.95,1.95,0,0,0,54.9,32.37L67.623,11.557,75.4,23.778V39H35.54l-.572-.65c-.037-.04-.074-.081-.112-.117a1.346,1.346,0,0,0-.26-.26,1.3,1.3,0,0,0-.93-.267H27.3V34.45a1.95,1.95,0,0,0-1.95-1.95h-3.9a1.95,1.95,0,0,0-1.95,1.95V37.7H14.592a1.951,1.951,0,0,0-1.457.65l-.575.65H3.8l1.55-2.21a1.3,1.3,0,0,0-2.129-1.495L.235,39.555l.02.013A1.266,1.266,0,0,0,0,40.3a1.3,1.3,0,0,0,1.3,1.3h8.949L3.888,48.75A1.95,1.95,0,0,0,5.347,52H6.5V65H1.3a1.3,1.3,0,1,0,0,2.6H35.1v7.8H31.2a1.3,1.3,0,1,0,0,2.6H76.7a1.3,1.3,0,1,0,0-2.6H70.2v-13h1.153a1.95,1.95,0,0,0,1.475-3.227l-8.9-10.424a1.949,1.949,0,0,0-1.457-.65H55.9V44.85a1.95,1.95,0,0,0-1.95-1.95h-3.9a1.95,1.95,0,0,0-1.95,1.95V48.1H43.627l-5.776-6.5H76.7A1.3,1.3,0,0,0,78,40.3V23.4a1.311,1.311,0,0,0-.2-.7ZM48.1,2.6a3.9,3.9,0,0,1,0,7.8c-.08,0-.168-.027-.25-.032a3.885,3.885,0,0,0-3.38-2.54A3.8,3.8,0,0,1,44.2,6.5,3.9,3.9,0,0,1,48.1,2.6ZM13,16.9a1.3,1.3,0,0,1,1.3-1.3h5.2a3.9,3.9,0,0,0,3.9-3.9,1.3,1.3,0,0,1,1.3-1.3H44.2a1.3,1.3,0,1,1,0,2.6H33.8a3.9,3.9,0,0,0-3.9,3.9,1.3,1.3,0,0,1-1.3,1.3H14.3A1.3,1.3,0,0,1,13,16.9ZM33.867,41.032l7.365,8.288-.071.08h-13.8ZM22.1,35.1h2.6v2.6H22.1Zm-7.216,5.2H31.141l-7.077,9.1H6.8ZM9.1,52H26V65H9.1ZM28.6,65V52H38.849l-6.361,7.15a1.95,1.95,0,0,0,1.459,3.25H35.1V65Zm9.1,0V62.4H54.6v13H37.7Zm19.5-2.6H67.6v13H65V71.5a1.3,1.3,0,0,0-2.6,0v3.9H57.2Zm5.3-11.31L69.94,59.8H55.912ZM52.65,59.8H35.395l8.089-9.1H59.53ZM50.7,45.5h2.6v2.6H50.7Zm0,0" transform="translate(0)"/></svg>